<?xml version="1.0" encoding="UTF-8" standalone="no"?>
<svg
   version="1.1"
   width="7.9062in"
   height="4.9577in"
   viewBox="0 0 569.2433 356.9567"
   id="svg13"
   sodipodi:docname="InstaPay.cdr"
   xmlns:inkscape="http://www.inkscape.org/namespaces/inkscape"
   xmlns:sodipodi="http://sodipodi.sourceforge.net/DTD/sodipodi-0.dtd"
   xmlns="http://www.w3.org/2000/svg"
   xmlns:svg="http://www.w3.org/2000/svg">
  <defs
     id="defs13" />
  <sodipodi:namedview
     id="namedview13"
     pagecolor="#ffffff"
     bordercolor="#000000"
     borderopacity="0.25"
     inkscape:showpageshadow="2"
     inkscape:pageopacity="0.0"
     inkscape:pagecheckerboard="0"
     inkscape:deskcolor="#d1d1d1"
     inkscape:document-units="in" />
  <g
     id="Layer1000">
    <path
       d="  M143.4129,0.0354 C163.3309,0.0707 183.2488,0.1056 203.1668,0.0179 C224.2618,36.7272 245.1636,73.5773 266.4164,110.1989 C224.2090,147.2422 181.9140,184.5489 139.7420,221.6624 C137.7046,223.4891 136.4574,223.8755 133.6827,223.8053 C114.8710,223.7700 96.1121,223.7879 77.3009,223.7879 C120.2457,185.8663 163.3662,148.0149 206.3637,110.1287 C185.3743,73.4543 164.1041,36.8676 143.4129,0.0354 Z"
       style="fill-rule: evenodd; fill: #f48271; "
       id="path1" />
    <path
       d="  M289.0215,0.0000 C310.0284,36.7451 331.0004,73.5245 352.2004,110.1640 C334.2322,126.0770 316.1235,141.8322 298.1727,157.7984 C275.2161,177.8921 252.3471,198.0735 229.4607,218.2723 C226.3171,220.7139 224.1214,224.2972 219.7126,223.8053 C200.8307,223.7525 181.9493,223.8402 163.0854,223.7351 C206.1880,185.9191 249.1681,147.9447 292.2533,110.1113 C270.9830,73.6475 250.3974,36.7974 229.0744,0.3689 C249.0277,-0.3864 269.0687,0.3341 289.0215,0.0000 Z"
       style="fill-rule: evenodd; fill: #ef6823; "
       id="path2" />
    <path
       d="  M73.5598,0.7379 C92.3884,0.5447 111.2354,0.7204 130.0640,0.6677 C123.7762,20.1291 117.3475,39.5377 110.9541,58.9638 C92.0374,58.9110 73.1207,59.0166 54.2039,58.8936 C60.8781,39.5905 66.7975,20.0061 73.5598,0.7379 Z"
       style="fill-rule: evenodd; fill: #512873; "
       id="path3" />
    <path
       d="  M387.6101,0.6851 C423.5292,0.5975 459.5011,0.7204 495.4202,0.6323 C506.6440,0.3162 517.9904,1.7217 528.8100,4.6901 C545.0396,9.4499 559.0034,20.7614 565.2210,36.7451 C571.5969,52.9394 568.6459,71.6803 562.9023,87.6466 C546.6558,134.7542 497.3873,167.8801 447.9964,168.0384 C415.8010,168.1789 383.5882,168.0733 351.3749,168.0384 C345.3151,186.6216 339.1851,205.1694 333.1433,223.7525 C314.1912,223.8227 295.2570,223.7525 276.3050,223.7700 C283.8226,201.8500 290.6551,179.7010 298.1727,157.7984 C316.1235,141.8322 334.2322,126.0770 352.2004,110.1640 C391.7202,110.1815 431.3456,110.2342 470.8654,110.1287 C486.6559,110.0411 501.8489,99.8712 506.9602,84.7484 C509.2261,78.0911 509.9460,71.0306 504.9228,65.4099 C499.5656,59.5259 492.3641,59.0166 484.8819,58.9284 C433.4003,59.0340 381.9193,58.8408 330.4383,59.0166 C349.5307,39.6428 368.2369,19.7602 387.6101,0.6851 Z"
       style="fill-rule: evenodd; fill: #7d569e; "
       id="path4" />
    <path
       d="  M103.3663,82.5173 C87.6814,129.5199 72.3828,176.6624 56.9264,223.7351 C37.9743,223.7879 19.0222,223.8402 0.0706,223.7172 C15.8606,176.7853 30.9133,129.5547 46.6161,82.5880 C65.5329,82.3769 84.4496,82.5353 103.3663,82.5173 Z"
       style="fill-rule: evenodd; fill: #512873; "
       id="path5" />
    <path
       d="  M25.0646,279.7300 C31.6511,279.6424 38.2202,279.6424 44.7894,279.6249 C36.1475,305.1631 28.0151,330.8600 19.4439,356.4161 C12.9624,356.4335 6.4814,356.4335 0.0000,356.3987 C8.3256,330.8426 16.8270,305.3214 25.0646,279.7300 Z"
       style="fill-rule: evenodd; fill: #512873; "
       id="path6" />
    <path
       d="  M65.1639,280.0989 C68.3429,280.9946 70.0641,283.3133 71.8381,285.8953 C79.5668,297.6982 87.1018,309.6421 95.0058,321.3225 C99.3792,307.3762 104.0161,293.5180 108.6180,279.6424 C115.1871,279.6598 121.7737,279.6598 128.3428,279.6951 C120.4214,302.1424 113.5889,324.9934 105.8254,347.4934 C103.9812,352.8681 99.0456,358.0671 92.8803,356.7497 C89.5609,355.3446 87.2074,352.8154 85.2223,349.8823 C77.4941,338.1142 70.0118,326.1704 62.0900,314.5253 C57.5233,328.5065 53.0443,342.5225 48.3020,356.4514 C41.7856,356.4335 35.2867,356.4335 28.7703,356.3987 C34.9705,337.4819 41.2061,318.5826 47.4063,299.6833 C48.8467,295.3447 50.0411,290.7607 52.0431,286.6506 C54.5022,281.8729 59.7364,278.7287 65.1639,280.0989 Z"
       style="fill-rule: evenodd; fill: #512873; "
       id="path7" />
    <path
       d="  M154.6716,279.7828 C174.2211,279.4492 193.8230,279.8355 213.3894,279.6070 C206.9786,286.2289 200.5325,292.8155 194.2442,299.5429 C179.8592,299.7182 165.4563,299.4374 151.0714,299.6305 C147.2596,299.8591 144.8886,300.8952 145.4682,305.2512 C158.2021,306.2873 171.0944,305.0406 183.8637,305.8133 C190.7137,306.4984 196.9845,310.4327 199.0568,317.2478 C201.3226,325.2747 197.7045,334.8645 192.8217,341.3281 C184.9705,351.3929 172.5701,356.5037 159.9412,356.4689 C141.8147,356.3633 123.7060,356.5037 105.5968,356.3807 C111.9554,349.4960 118.5419,342.8213 125.0757,336.1117 C139.6543,336.0590 154.2330,336.1994 168.8111,336.0943 C173.0616,336.0062 177.2244,335.0931 179.5779,331.2110 C181.9319,328.4537 178.3661,325.9070 175.8019,325.6257 C163.2079,324.8530 150.4739,325.9419 137.8629,325.1692 C129.7658,324.5369 122.4234,318.9162 122.3184,310.3097 C123.0737,293.1670 138.0910,280.6083 154.6716,279.7828 Z"
       style="fill-rule: evenodd; fill: #512873; "
       id="path8" />
    <path
       d="  M217.3237,279.6772 C238.6473,279.6424 259.9877,279.6424 281.3107,279.6951 C274.7769,286.2817 268.4184,293.0266 261.8847,299.6131 C255.6317,299.5076 249.3787,299.5250 243.1258,299.8237 C237.0485,318.7405 230.9539,337.6751 224.5078,356.4514 C217.9740,356.4161 211.4576,356.4335 204.9408,356.4335 C211.3695,337.5168 217.4293,318.4945 223.7525,299.5603 C215.1988,299.5778 206.6446,299.6131 198.1083,299.6131 C204.4494,292.9384 210.6670,286.0711 217.3237,279.6772 Z"
       style="fill-rule: evenodd; fill: #512873; "
       id="path9" />
    <path
       d="  M310.3271,281.0474 C314.5248,283.9630 315.1048,288.1786 316.3341,292.7806 C319.1621,304.8648 322.5169,316.8609 325.0108,329.0159 C322.1833,338.2019 319.1447,347.3177 316.0707,356.4335 C296.7323,356.3987 277.3938,356.4689 258.0554,356.3987 C264.2909,349.4606 270.5793,342.5753 276.9901,335.8130 C285.5612,335.9888 294.1502,335.9011 302.7219,335.9360 C300.1926,326.9606 297.8739,317.9324 295.5732,308.8868 C281.1350,324.9058 266.3462,340.6435 251.6800,356.4514 C243.7058,356.3987 235.7491,356.4514 227.7749,356.4161 C244.6543,337.2534 262.3238,318.7405 279.4840,299.8063 C285.1748,294.0453 290.3389,286.7736 297.1540,282.3822 C301.0529,280.0989 306.2524,277.9212 310.3271,281.0474 Z"
       style="fill-rule: evenodd; fill: #512873; "
       id="path10" />
    <path
       d="  M354.3607,279.6951 C367.4288,279.6424 380.4968,279.6070 393.5470,279.7126 C400.8186,279.8530 407.9673,281.6971 412.6220,287.6693 C416.9780,293.2018 416.6967,300.6667 414.9755,307.1481 C410.1455,324.0449 393.4240,336.3049 376.0178,336.8143 C364.6361,337.0951 353.2370,336.5857 341.8553,337.0249 C339.9404,343.5412 337.7627,349.9699 335.5849,356.3987 C329.0681,356.4335 322.5696,356.4335 316.0707,356.4335 C319.1447,347.3177 322.1833,338.2019 325.0108,329.0159 C326.3984,325.0109 327.8034,321.0238 329.1034,317.0018 C347.0542,316.7559 365.0399,317.1069 382.9908,316.8609 C389.7182,316.9491 396.8141,310.3097 395.3389,303.3717 C393.0376,299.2088 388.9101,299.7182 384.7826,299.5250 C368.0437,299.6305 351.3047,299.5603 334.5657,299.5952 C341.2404,293.0440 347.4760,286.0183 354.3607,279.6951 Z"
       style="fill-rule: evenodd; fill: #7d569e; "
       id="path11" />
    <path
       d="  M456.7961,279.4138 C462.6806,279.6070 465.8243,283.9282 467.0013,289.2501 C472.6219,311.6092 478.0494,334.0565 483.7049,356.4161 C459.0271,356.3987 434.3488,356.4863 409.6710,356.3633 C415.8184,349.4253 422.2123,342.6809 428.5355,335.8832 C437.1420,335.9360 445.7484,335.9360 454.3549,335.8832 C451.8257,327.0661 449.4721,318.2137 447.3820,309.2911 C436.1233,320.3915 425.8653,332.5285 414.9053,343.9281 C410.9357,347.8270 407.3703,353.2899 402.7509,356.2757 C394.9346,356.7676 387.0480,356.2583 379.2148,356.3987 C399.3608,334.1620 419.8409,312.2241 440.0222,290.0228 C444.7118,284.9115 449.6653,280.5027 456.7961,279.4138 Z"
       style="fill-rule: evenodd; fill: #7d569e; "
       id="path12" />
    <path
       d="  M474.0623,279.6772 C482.4049,279.6424 490.7659,279.6598 499.1090,279.6598 C503.6229,289.9352 507.8912,300.2982 512.3877,310.5731 C522.9085,300.1573 533.5175,289.7769 544.2490,279.6070 C552.5921,279.7126 560.9177,279.6070 569.2434,279.7126 C552.9436,294.6950 537.1531,310.2216 520.9060,325.2568 C518.6053,327.5227 515.5667,329.8762 514.5127,333.0029 C511.7200,340.7486 509.5422,348.7053 506.6789,356.4335 C500.1805,356.4335 493.6990,356.4335 487.2000,356.3987 C489.6591,348.4593 492.5927,340.6435 494.9288,332.6514 C495.9121,329.9116 494.2083,327.2419 493.2952,324.6947 C486.7788,309.7302 480.6663,294.6074 474.0623,279.6772 Z"
       style="fill-rule: evenodd; fill: #7d569e; "
       id="path13" />
  </g>
</svg>
